<svg width="32" height="32" viewBox="0 0 32 32" fill="none" xmlns="http://www.w3.org/2000/svg">
<path d="M3.2002 2.9903C2.64791 2.9903 2.2002 3.43801 2.2002 3.9903C2.2002 4.54258 2.64791 4.9903 3.2002 4.9903V2.9903ZM6.25691 3.9903L7.22214 3.72888C7.10408 3.29298 6.70852 2.9903 6.25691 2.9903V3.9903ZM11.2241 22.3306L10.2588 22.592C10.3891 23.073 10.8536 23.3847 11.3481 23.3229L11.2241 22.3306ZM26.5077 20.4202L26.6317 21.4124C27.0564 21.3593 27.4002 21.0419 27.4869 20.6228L26.5077 20.4202ZM28.8002 9.33955L29.7795 9.54216C29.8404 9.24764 29.7655 8.94134 29.5756 8.70813C29.3857 8.47491 29.1009 8.33955 28.8002 8.33955V9.33955ZM7.70567 9.33955L6.74044 9.60097L7.70567 9.33955ZM3.2002 4.9903H6.25691V2.9903H3.2002V4.9903ZM11.3481 23.3229L26.6317 21.4124L26.3836 19.4279L11.1 21.3383L11.3481 23.3229ZM27.4869 20.6228L29.7795 9.54216L27.8209 9.13695L25.5284 20.2175L27.4869 20.6228ZM5.29168 4.25171L6.74044 9.60097L8.67089 9.07814L7.22214 3.72888L5.29168 4.25171ZM6.74044 9.60097L10.2588 22.592L12.1893 22.0692L8.67089 9.07814L6.74044 9.60097ZM28.8002 8.33955H7.70567V10.3396H28.8002V8.33955ZM15.0002 27.3333C15.0002 27.8856 14.5525 28.3333 14.0002 28.3333V30.3333C15.6571 30.3333 17.0002 28.9902 17.0002 27.3333H15.0002ZM14.0002 28.3333C13.4479 28.3333 13.0002 27.8856 13.0002 27.3333H11.0002C11.0002 28.9902 12.3433 30.3333 14.0002 30.3333V28.3333ZM13.0002 27.3333C13.0002 26.781 13.4479 26.3333 14.0002 26.3333V24.3333C12.3433 24.3333 11.0002 25.6765 11.0002 27.3333H13.0002ZM14.0002 26.3333C14.5525 26.3333 15.0002 26.781 15.0002 27.3333H17.0002C17.0002 25.6765 15.6571 24.3333 14.0002 24.3333V26.3333ZM25.6669 27.3333C25.6669 27.8856 25.2191 28.3333 24.6669 28.3333V30.3333C26.3237 30.3333 27.6669 28.9902 27.6669 27.3333H25.6669ZM24.6669 28.3333C24.1146 28.3333 23.6669 27.8856 23.6669 27.3333H21.6669C21.6669 28.9902 23.01 30.3333 24.6669 30.3333V28.3333ZM23.6669 27.3333C23.6669 26.781 24.1146 26.3333 24.6669 26.3333V24.3333C23.01 24.3333 21.6669 25.6765 21.6669 27.3333H23.6669ZM24.6669 26.3333C25.2191 26.3333 25.6669 26.781 25.6669 27.3333H27.6669C27.6669 25.6765 26.3237 24.3333 24.6669 24.3333V26.3333Z" fill="black"/>
</svg>
