<svg width="137" height="44" viewBox="0 0 137 44" fill="none" xmlns="http://www.w3.org/2000/svg">
<path d="M42.6306 34V10.96H57.5106V14.576H46.4866V20.256H55.5906V23.872H46.4866V30.384H57.5106V34H42.6306ZM68.2774 34.48C66.688 34.48 65.3014 34.08 64.1174 33.28C62.9334 32.48 62.016 31.392 61.3654 30.016C60.7147 28.64 60.3894 27.088 60.3894 25.36C60.3894 23.6107 60.7147 22.0533 61.3654 20.688C62.0267 19.312 62.96 18.2293 64.1654 17.44C65.3707 16.64 66.7894 16.24 68.4214 16.24C70.064 16.24 71.44 16.64 72.5494 17.44C73.6694 18.2293 74.5174 19.312 75.0934 20.688C75.6694 22.064 75.9574 23.6213 75.9574 25.36C75.9574 27.0773 75.6694 28.6293 75.0934 30.016C74.5174 31.392 73.6587 32.48 72.5174 33.28C71.376 34.08 69.9627 34.48 68.2774 34.48ZM68.8694 31.024C69.904 31.024 70.736 30.7893 71.3654 30.32C72.0054 29.84 72.4694 29.1733 72.7574 28.32C73.056 27.4667 73.2054 26.48 73.2054 25.36C73.2054 24.2293 73.056 23.2427 72.7574 22.4C72.4694 21.5467 72.016 20.8853 71.3974 20.416C70.7787 19.936 69.9787 19.696 68.9974 19.696C67.9627 19.696 67.1094 19.952 66.4374 20.464C65.7654 20.9653 65.2694 21.648 64.9494 22.512C64.6294 23.3653 64.4694 24.3147 64.4694 25.36C64.4694 26.416 64.624 27.376 64.9334 28.24C65.2534 29.0933 65.7387 29.7707 66.3894 30.272C67.04 30.7733 67.8667 31.024 68.8694 31.024ZM73.2054 34V21.872H72.7254V10.96H76.6134V34H73.2054ZM87.5794 34.496C86.2994 34.496 85.2434 34.2827 84.4114 33.856C83.5794 33.4293 82.918 32.8853 82.4274 32.224C81.9367 31.5627 81.574 30.8587 81.3394 30.112C81.1047 29.3653 80.95 28.6613 80.8754 28C80.8114 27.328 80.7794 26.784 80.7794 26.368V16.72H84.6834V25.04C84.6834 25.5733 84.7207 26.176 84.7954 26.848C84.87 27.5093 85.0407 28.1493 85.3074 28.768C85.5847 29.376 85.99 29.8773 86.5234 30.272C87.0674 30.6667 87.798 30.864 88.7154 30.864C89.206 30.864 89.6914 30.784 90.1714 30.624C90.6514 30.464 91.0834 30.192 91.4674 29.808C91.862 29.4133 92.1767 28.8747 92.4114 28.192C92.646 27.5093 92.7634 26.6453 92.7634 25.6L95.0514 26.576C95.0514 28.048 94.7634 29.3813 94.1874 30.576C93.622 31.7707 92.7847 32.7253 91.6754 33.44C90.566 34.144 89.2007 34.496 87.5794 34.496ZM93.2274 34V28.64H92.7634V16.72H96.6354V34H93.2274ZM108.635 34.48C106.853 34.48 105.333 34.0853 104.075 33.296C102.816 32.496 101.851 31.408 101.179 30.032C100.517 28.656 100.181 27.0987 100.171 25.36C100.181 23.5893 100.528 22.0213 101.211 20.656C101.904 19.28 102.885 18.2027 104.155 17.424C105.424 16.6347 106.933 16.24 108.683 16.24C110.645 16.24 112.304 16.736 113.659 17.728C115.024 18.7093 115.915 20.0533 116.331 21.76L112.491 22.8C112.192 21.872 111.696 21.152 111.003 20.64C110.309 20.1173 109.52 19.856 108.635 19.856C107.632 19.856 106.805 20.096 106.155 20.576C105.504 21.0453 105.024 21.696 104.715 22.528C104.405 23.36 104.251 24.304 104.251 25.36C104.251 27.0027 104.619 28.3307 105.355 29.344C106.091 30.3573 107.184 30.864 108.635 30.864C109.659 30.864 110.464 30.6293 111.051 30.16C111.648 29.6907 112.096 29.0133 112.395 28.128L116.331 29.008C115.797 30.768 114.864 32.1227 113.531 33.072C112.197 34.0107 110.565 34.48 108.635 34.48ZM126.7 34.48C124.972 34.48 123.463 34.0907 122.172 33.312C120.881 32.5333 119.879 31.4613 119.164 30.096C118.46 28.72 118.108 27.1413 118.108 25.36C118.108 23.5467 118.471 21.9573 119.196 20.592C119.921 19.2267 120.929 18.16 122.22 17.392C123.511 16.624 125.004 16.24 126.7 16.24C128.439 16.24 129.953 16.6293 131.244 17.408C132.535 18.1867 133.537 19.264 134.252 20.64C134.967 22.0053 135.324 23.5787 135.324 25.36C135.324 27.152 134.961 28.736 134.236 30.112C133.521 31.4773 132.519 32.5493 131.228 33.328C129.937 34.096 128.428 34.48 126.7 34.48ZM126.7 30.864C128.236 30.864 129.377 30.352 130.124 29.328C130.871 28.304 131.244 26.9813 131.244 25.36C131.244 23.6853 130.865 22.352 130.108 21.36C129.351 20.3573 128.215 19.856 126.7 19.856C125.665 19.856 124.812 20.0907 124.14 20.56C123.479 21.0187 122.988 21.664 122.668 22.496C122.348 23.3173 122.188 24.272 122.188 25.36C122.188 27.0347 122.567 28.3733 123.324 29.376C124.092 30.368 125.217 30.864 126.7 30.864Z" fill="#0E0E0F"/>
<path d="M2.6665 13H10.6665C12.081 13 13.4375 13.5619 14.4377 14.5621C15.4379 15.5623 15.9998 16.9188 15.9998 18.3333V37C15.9998 35.9391 15.5784 34.9217 14.8283 34.1716C14.0781 33.4214 13.0607 33 11.9998 33H2.6665V13Z" fill="#FFD05A" stroke="#FFD05A" stroke-width="3" stroke-linecap="round" stroke-linejoin="round"/>
<path d="M29.3333 13H21.3333C19.9188 13 18.5623 13.5619 17.5621 14.5621C16.5619 15.5623 16 16.9188 16 18.3333V37C16 35.9391 16.4214 34.9217 17.1716 34.1716C17.9217 33.4214 18.9391 33 20 33H29.3333V13Z" fill="#0166FF" stroke="#0166FF" stroke-width="3" stroke-linecap="round" stroke-linejoin="round"/>
</svg>
